<?xml version="1.0" standalone="no"?>
<!DOCTYPE svg PUBLIC "-//W3C//DTD SVG 20010904//EN"
 "http://www.w3.org/TR/2001/REC-SVG-20010904/DTD/svg10.dtd">
<svg version="1.0" xmlns="http://www.w3.org/2000/svg"
 width="700.000000pt" height="700.000000pt" viewBox="0 0 700.000000 700.000000"
 preserveAspectRatio="xMidYMid meet">
<metadata>
Created by potrace 1.14, written by Peter Selinger 2001-2017
</metadata>
<g transform="translate(0.000000,700.000000) scale(0.100000,-0.100000)"
fill="#000000" stroke="none">
<path d="M3467 6907 c-97 -321 -260 -795 -318 -924 -10 -23 -19 -45 -19 -48 0
-7 -107 -267 -144 -350 -22 -50 -37 -84 -139 -330 -73 -176 -132 -301 -257
-550 l-105 -210 -115 -57 c-218 -108 -435 -211 -540 -255 -58 -25 -138 -60
-178 -79 -41 -19 -78 -34 -83 -34 -4 0 -77 -30 -161 -66 -379 -165 -636 -262
-1043 -394 -104 -34 -228 -74 -275 -89 l-85 -28 75 -23 c207 -61 695 -227 795
-270 11 -4 85 -34 165 -65 80 -31 159 -63 175 -70 83 -37 386 -165 391 -165 3
0 20 -6 37 -14 18 -8 61 -27 97 -42 121 -49 434 -197 595 -279 l159 -82 88
-184 c74 -157 125 -267 304 -667 13 -29 24 -55 24 -57 0 -2 12 -30 26 -62 15
-32 37 -83 51 -113 54 -118 162 -387 223 -555 10 -27 30 -81 44 -120 15 -38
72 -209 127 -380 56 -171 104 -317 106 -325 3 -8 19 28 35 80 98 317 224 684
274 797 8 17 14 34 14 38 0 4 6 21 14 38 7 18 46 113 86 212 40 99 86 209 103
245 16 36 51 119 77 185 81 201 206 473 341 740 l66 130 223 112 c123 62 251
124 284 139 278 123 359 158 411 179 33 12 116 47 185 77 328 143 766 302
1278 463 l122 39 -132 38 c-135 39 -618 199 -673 223 -16 7 -75 30 -130 50
-118 44 -472 190 -565 233 -36 16 -76 33 -90 37 -88 28 -384 162 -696 316
l-221 109 -48 103 c-27 56 -75 158 -108 227 -76 162 -132 285 -202 445 -31 72
-62 144 -70 160 -181 401 -358 877 -517 1392 l-54 172 -27 -92z m278 -2092
c358 -76 631 -252 862 -556 78 -102 151 -262 192 -421 49 -190 53 -450 9 -613
-6 -22 -11 -44 -12 -50 -10 -50 -71 -205 -82 -205 -17 0 -180 44 -226 61 -29
11 -61 22 -70 24 -10 2 -32 10 -50 18 -18 8 -58 25 -88 38 -139 60 -381 191
-530 288 -425 275 -821 688 -1048 1092 l-32 56 78 56 c114 82 282 160 422 197
159 41 421 48 575 15z m-1340 -831 c265 -72 613 -245 922 -457 378 -259 756
-667 959 -1035 l29 -53 -25 -20 c-77 -63 -214 -142 -325 -190 -44 -18 -201
-59 -252 -65 -13 -1 -42 -5 -65 -9 -49 -9 -270 -9 -308 -1 -14 3 -50 10 -80
16 -165 30 -392 121 -521 207 -270 182 -486 481 -550 762 -24 105 -28 127 -36
201 -19 174 1 371 53 527 38 112 61 155 82 149 9 -2 62 -17 117 -32z"/>
</g>
</svg>
